<svg className="logo" xmlns="http://www.w3.org/2000/svg">
<path d="M14.208 0.0079999C14.096 1.144 14.04 2.168 14.04 3.08C14.04 3.88 14.064 4.536 14.112 5.048H13.56C13.432 3.816 13.272 2.904 13.08 2.312C12.888 1.704 12.552 1.264 12.072 0.991999C11.592 0.703999 10.856 0.559999 9.864 0.559999H8.568V14.216C8.568 14.888 8.632 15.376 8.76 15.68C8.888 15.984 9.112 16.192 9.432 16.304C9.752 16.416 10.272 16.488 10.992 16.52V17C10.16 16.952 8.984 16.928 7.464 16.928C5.864 16.928 4.68 16.952 3.912 17V16.52C4.632 16.488 5.152 16.416 5.472 16.304C5.792 16.192 6.016 15.984 6.144 15.68C6.272 15.376 6.336 14.888 6.336 14.216V0.559999H5.04C4.048 0.559999 3.312 0.703999 2.832 0.991999C2.352 1.264 2.016 1.704 1.824 2.312C1.632 2.904 1.472 3.816 1.344 5.048H0.792C0.84 4.536 0.864 3.88 0.864 3.08C0.864 2.168 0.808 1.144 0.696 0.0079999C2.024 0.0559993 4.28 0.079999 7.464 0.079999C10.632 0.079999 12.88 0.0559993 14.208 0.0079999ZM32.0663 0.487999C31.4903 0.519999 31.0663 0.583999 30.7943 0.68C30.5383 0.776 30.3623 0.96 30.2663 1.232C30.1703 1.504 30.1223 1.944 30.1223 2.552V14.456C30.1223 15.064 30.1703 15.504 30.2663 15.776C30.3623 16.048 30.5383 16.232 30.7943 16.328C31.0663 16.424 31.4903 16.488 32.0663 16.52V17C31.3943 16.952 30.3703 16.928 28.9943 16.928C27.6983 16.928 26.6823 16.952 25.9463 17V16.52C26.5223 16.488 26.9383 16.424 27.1943 16.328C27.4663 16.232 27.6503 16.048 27.7463 15.776C27.8423 15.504 27.8903 15.064 27.8903 14.456V8.696H20.0903V14.456C20.0903 15.064 20.1383 15.504 20.2343 15.776C20.3303 16.048 20.5063 16.232 20.7623 16.328C21.0343 16.424 21.4583 16.488 22.0343 16.52V17C21.2983 16.952 20.2823 16.928 18.9863 16.928C17.6103 16.928 16.5863 16.952 15.9143 17V16.52C16.4903 16.488 16.9063 16.424 17.1623 16.328C17.4343 16.232 17.6183 16.048 17.7143 15.776C17.8103 15.504 17.8583 15.064 17.8583 14.456V2.552C17.8583 1.944 17.8103 1.504 17.7143 1.232C17.6183 0.96 17.4343 0.776 17.1623 0.68C16.9063 0.583999 16.4903 0.519999 15.9143 0.487999V0.0079999C16.5863 0.0559993 17.6103 0.079999 18.9863 0.079999C20.2663 0.079999 21.2823 0.0559993 22.0343 0.0079999V0.487999C21.4583 0.519999 21.0343 0.583999 20.7623 0.68C20.5063 0.776 20.3303 0.96 20.2343 1.232C20.1383 1.504 20.0903 1.944 20.0903 2.552V8.216H27.8903V2.552C27.8903 1.944 27.8423 1.504 27.7463 1.232C27.6503 0.96 27.4663 0.776 27.1943 0.68C26.9383 0.583999 26.5223 0.519999 25.9463 0.487999V0.0079999C26.6823 0.0559993 27.6983 0.079999 28.9943 0.079999C30.3703 0.079999 31.3943 0.0559993 32.0663 0.0079999V0.487999ZM46.3663 13.928C46.3663 14.84 46.4223 15.864 46.5343 17C45.4463 16.952 43.6143 16.928 41.0383 16.928C37.9663 16.928 35.6463 16.952 34.0783 17V16.52C34.6543 16.488 35.0703 16.424 35.3263 16.328C35.5983 16.232 35.7823 16.048 35.8783 15.776C35.9743 15.504 36.0223 15.064 36.0223 14.456V2.552C36.0223 1.944 35.9743 1.504 35.8783 1.232C35.7823 0.96 35.5983 0.776 35.3263 0.68C35.0703 0.583999 34.6543 0.519999 34.0783 0.487999V0.0079999C35.6463 0.0559993 37.9663 0.079999 41.0383 0.079999C43.3903 0.079999 45.0623 0.0559993 46.0543 0.0079999C45.9423 1.064 45.8863 2.008 45.8863 2.84C45.8863 3.464 45.9103 3.96 45.9583 4.328H45.4063C45.2943 3.288 45.1503 2.52 44.9743 2.024C44.7983 1.512 44.5023 1.144 44.0863 0.92C43.6703 0.679999 43.0383 0.559999 42.1903 0.559999H40.1983C39.6223 0.559999 39.1983 0.607999 38.9263 0.704C38.6703 0.783999 38.4943 0.96 38.3983 1.232C38.3023 1.504 38.2543 1.944 38.2543 2.552V8.216H39.8383C40.3983 8.216 40.8303 8.088 41.1343 7.832C41.4383 7.56 41.6383 7.248 41.7343 6.896C41.8463 6.528 41.9343 6.072 41.9983 5.528L42.0703 5.048H42.6223C42.5743 5.72 42.5503 6.472 42.5503 7.304V8.456C42.5503 9.272 42.5983 10.408 42.6943 11.864H42.1423C42.1263 11.752 42.0783 11.368 41.9983 10.712C41.9183 10.04 41.6943 9.536 41.3263 9.2C40.9743 8.864 40.4783 8.696 39.8383 8.696H38.2543V14.456C38.2543 15.064 38.3023 15.504 38.3983 15.776C38.4943 16.048 38.6703 16.232 38.9263 16.328C39.1983 16.408 39.6223 16.448 40.1983 16.448H41.9503C42.9423 16.448 43.6943 16.32 44.2063 16.064C44.7343 15.792 45.1183 15.368 45.3583 14.792C45.5983 14.2 45.7743 13.336 45.8863 12.2H46.4383C46.3903 12.632 46.3663 13.208 46.3663 13.928ZM19.896 32.488C19.32 32.52 18.896 32.584 18.624 32.68C18.368 32.776 18.192 32.96 18.096 33.232C18 33.504 17.952 33.944 17.952 34.552V46.456C17.952 47.064 18 47.504 18.096 47.776C18.192 48.048 18.368 48.232 18.624 48.328C18.896 48.424 19.32 48.488 19.896 48.52V49C19.16 48.952 18.144 48.928 16.848 48.928C15.472 48.928 14.448 48.952 13.776 49V48.52C14.352 48.488 14.768 48.424 15.024 48.328C15.296 48.232 15.48 48.048 15.576 47.776C15.672 47.504 15.72 47.064 15.72 46.456V33.592L9.936 49.12H9.552L3.504 33.544V46.216C3.504 46.84 3.552 47.304 3.648 47.608C3.76 47.912 3.968 48.136 4.272 48.28C4.576 48.408 5.048 48.488 5.688 48.52V49C5.112 48.952 4.296 48.928 3.24 48.928C2.28 48.928 1.536 48.952 1.008 49V48.52C1.568 48.488 1.984 48.408 2.256 48.28C2.528 48.136 2.712 47.912 2.808 47.608C2.904 47.288 2.952 46.824 2.952 46.216V34.552C2.952 33.944 2.904 33.504 2.808 33.232C2.712 32.96 2.528 32.776 2.256 32.68C2 32.584 1.584 32.52 1.008 32.488V32.008C1.536 32.056 2.28 32.08 3.24 32.08C4.072 32.08 4.752 32.056 5.28 32.008L10.56 45.904L15.72 32.08H16.848C18.144 32.08 19.16 32.056 19.896 32.008V32.488ZM34.2023 45.928C34.2023 46.84 34.2583 47.864 34.3703 49C33.2823 48.952 31.4503 48.928 28.8743 48.928C25.8023 48.928 23.4823 48.952 21.9143 49V48.52C22.4903 48.488 22.9063 48.424 23.1623 48.328C23.4343 48.232 23.6183 48.048 23.7143 47.776C23.8103 47.504 23.8583 47.064 23.8583 46.456V34.552C23.8583 33.944 23.8103 33.504 23.7143 33.232C23.6183 32.96 23.4343 32.776 23.1623 32.68C22.9063 32.584 22.4903 32.52 21.9143 32.488V32.008C23.4823 32.056 25.8023 32.08 28.8743 32.08C31.2263 32.08 32.8983 32.056 33.8903 32.008C33.7783 33.064 33.7223 34.008 33.7223 34.84C33.7223 35.464 33.7463 35.96 33.7943 36.328H33.2422C33.1303 35.288 32.9863 34.52 32.8103 34.024C32.6343 33.512 32.3383 33.144 31.9223 32.92C31.5063 32.68 30.8743 32.56 30.0263 32.56H28.0343C27.4583 32.56 27.0343 32.608 26.7623 32.704C26.5063 32.784 26.3303 32.96 26.2343 33.232C26.1383 33.504 26.0903 33.944 26.0903 34.552V40.216H27.6743C28.2343 40.216 28.6663 40.088 28.9703 39.832C29.2743 39.56 29.4743 39.248 29.5703 38.896C29.6823 38.528 29.7703 38.072 29.8343 37.528L29.9063 37.048H30.4583C30.4103 37.72 30.3863 38.472 30.3863 39.304V40.456C30.3863 41.272 30.4343 42.408 30.5303 43.864H29.9783C29.9623 43.752 29.9143 43.368 29.8343 42.712C29.7543 42.04 29.5303 41.536 29.1623 41.2C28.8103 40.864 28.3143 40.696 27.6743 40.696H26.0903V46.456C26.0903 47.064 26.1383 47.504 26.2343 47.776C26.3303 48.048 26.5063 48.232 26.7623 48.328C27.0343 48.408 27.4583 48.448 28.0343 48.448H29.7863C30.7783 48.448 31.5303 48.32 32.0423 48.064C32.5703 47.792 32.9543 47.368 33.1943 46.792C33.4343 46.2 33.6103 45.336 33.7223 44.2H34.2743C34.2263 44.632 34.2023 45.208 34.2023 45.928ZM49.7393 32.008C49.6273 33.144 49.5713 34.168 49.5713 35.08C49.5713 35.88 49.5953 36.536 49.6432 37.048H49.0912C48.9633 35.816 48.8033 34.904 48.6113 34.312C48.4193 33.704 48.0833 33.264 47.6033 32.992C47.1233 32.704 46.3873 32.56 45.3953 32.56H44.0993V46.216C44.0993 46.888 44.1633 47.376 44.2913 47.68C44.4193 47.984 44.6433 48.192 44.9633 48.304C45.2833 48.416 45.8033 48.488 46.5233 48.52V49C45.6913 48.952 44.5153 48.928 42.9953 48.928C41.3953 48.928 40.2113 48.952 39.4433 49V48.52C40.1633 48.488 40.6833 48.416 41.0033 48.304C41.3233 48.192 41.5473 47.984 41.6753 47.68C41.8033 47.376 41.8672 46.888 41.8672 46.216V32.56H40.5713C39.5793 32.56 38.8433 32.704 38.3633 32.992C37.8833 33.264 37.5473 33.704 37.3553 34.312C37.1633 34.904 37.0033 35.816 36.8753 37.048H36.3232C36.3713 36.536 36.3953 35.88 36.3953 35.08C36.3953 34.168 36.3393 33.144 36.2273 32.008C37.5553 32.056 39.8113 32.08 42.9953 32.08C46.1633 32.08 48.4113 32.056 49.7393 32.008Z" fill="white"/>
</svg>
